<svg width="728" height="105" viewBox="0 0 728 105" fill="none" xmlns="http://www.w3.org/2000/svg">
<path d="M-193.547 157.565C-193.459 157.378 -193.539 157.154 -193.727 157.066C-193.914 156.977 -194.138 157.058 -194.226 157.245L-193.547 157.565ZM-26.094 299.634L-26.143 300.006L-26.094 299.634ZM559.307 271.89L559.165 272.237L559.307 271.89ZM868.115 337.565C868.239 337.398 868.204 337.163 868.038 337.04C867.871 336.916 867.636 336.951 867.513 337.118L868.115 337.565ZM-28.9358 13.9954C-29.1373 14.0438 -29.2615 14.2464 -29.2131 14.4479C-29.1647 14.6494 -28.9621 14.7736 -28.7606 14.7252L-28.9358 13.9954ZM292.572 38.5976L292.41 38.9364L292.572 38.5976ZM720.033 125.151C720.235 125.105 720.363 124.905 720.317 124.703C720.272 124.5 720.071 124.373 719.869 124.419L720.033 125.151ZM104.617 12.2575L104.631 11.8825L104.63 11.8825L104.617 12.2575ZM304.539 46.8891L304.699 46.5497L304.697 46.5486L304.539 46.8891ZM97.5211 25.8023L97.5402 25.4275L97.5384 25.4274L97.5211 25.8023ZM316.717 57.3152L316.876 56.9751L316.872 56.9734L316.717 57.3152ZM90.5134 40.2439L90.5368 39.8693L90.5347 39.8692L90.5134 40.2439ZM328.984 68.638L329.141 68.2973L329.136 68.2952L328.984 68.638ZM83.5079 54.7064L83.5348 54.3321L83.5325 54.3319L83.5079 54.7064ZM341.252 79.9817L341.408 79.6405L341.403 79.6382L341.252 79.9817ZM76.5023 69.1689L76.5322 68.7948L76.5298 68.7947L76.5023 69.1689ZM353.52 91.3255L353.675 90.9838L353.67 90.9814L353.52 91.3255ZM69.4967 83.6314L69.5291 83.2575L69.5269 83.2574L69.4967 83.6314ZM365.789 102.669L365.943 102.327L365.937 102.325L365.789 102.669ZM62.4911 98.0939L62.5258 97.7203L62.5236 97.7201L62.4911 98.0939ZM378.057 114.013L378.21 113.67L378.205 113.668L378.057 114.013ZM55.4856 112.556L55.5221 112.183L55.5201 112.183L55.4856 112.556ZM390.325 125.357L390.477 125.014L390.472 125.011L390.325 125.357ZM48.48 127.019L48.5182 126.646L48.5163 126.645L48.48 127.019ZM402.594 136.7L402.745 136.357L402.74 136.355L402.594 136.7ZM41.4744 141.482L41.5141 141.108L41.5124 141.108L41.4744 141.482ZM414.862 148.044L415.012 147.7L415.008 147.698L414.862 148.044ZM34.4689 155.944L34.5099 155.571L34.5083 155.571L34.4689 155.944ZM427.13 159.388L427.28 159.044L427.275 159.042L427.13 159.388ZM27.4633 170.406L27.5055 170.034L27.5041 170.033L27.4633 170.406ZM439.399 170.732L439.547 170.387L439.543 170.385L439.399 170.732ZM20.5392 184.861L20.5824 184.488L20.5812 184.488L20.5392 184.861ZM451.749 182.067L451.896 181.722L451.893 181.721L451.749 182.067ZM13.9519 199.282L13.9961 198.91L13.995 198.91L13.9519 199.282ZM464.435 193.37L464.582 193.025L464.579 193.023L464.435 193.37ZM7.66243 213.674L7.7075 213.302L7.70662 213.302L7.66243 213.674ZM477.42 204.643L477.566 204.297L477.563 204.296L477.42 204.643ZM1.61885 228.042L1.66472 227.669L1.664 227.669L1.61885 228.042ZM490.65 215.892L490.795 215.546L490.793 215.545L490.65 215.892ZM-4.22 242.389L-4.17339 242.017L-4.17395 242.017L-4.22 242.389ZM504.085 227.121L504.23 226.774L504.228 226.774L504.085 227.121ZM-9.8868 256.72L-9.83951 256.348L-9.83992 256.348L-9.8868 256.72ZM517.692 238.333L517.836 237.986L517.835 237.985L517.692 238.333ZM-15.4079 271.036L-15.36 270.664L-15.3602 270.664L-15.4079 271.036ZM531.445 249.53L531.588 249.183L531.587 249.183L531.445 249.53ZM-20.8044 285.34L-20.7559 284.968L-20.7561 284.968L-20.8044 285.34ZM545.323 260.715L545.465 260.368L545.464 260.368L545.323 260.715ZM-194.226 157.245C-203.155 176.205 -205.419 206.089 -183.257 234.147C-161.107 262.19 -114.605 288.345 -26.143 300.006L-26.0449 299.261C-114.423 287.612 -160.694 261.502 -182.668 233.682C-204.631 205.877 -202.371 176.303 -193.547 157.565L-194.226 157.245ZM-26.143 300.006C84.4824 314.587 162.402 279.669 246.807 255.132C331.202 230.599 422.199 216.389 559.165 272.237L559.449 271.542C422.284 215.614 331.107 229.845 246.597 254.412C162.097 278.976 84.3808 313.817 -26.0449 299.261L-26.143 300.006ZM559.165 272.237C668.832 316.954 743.125 337.189 791.448 344.31C815.608 347.871 833.291 348.156 845.663 346.576C858.009 345 865.154 341.556 868.115 337.565L867.513 337.118C864.745 340.848 857.875 344.26 845.568 345.832C833.287 347.4 815.678 347.123 791.557 343.568C743.317 336.459 669.086 316.247 559.449 271.542L559.165 272.237ZM-28.7606 14.7252C1.20352 7.53247 53.2369 0.107523 111.916 1.22244C170.598 2.33739 235.896 11.9922 292.41 38.9364L292.733 38.2589C236.088 11.2522 170.672 1.58815 111.931 0.472058C53.1875 -0.644066 1.09047 6.78777 -28.9358 13.9954L-28.7606 14.7252ZM292.41 38.9364C363.174 72.6743 453.201 98.0118 533.958 113.024C574.339 120.53 612.409 125.456 644.602 127.56C676.786 129.662 703.127 128.946 720.033 125.151L719.869 124.419C703.071 128.189 676.819 128.912 644.651 126.811C612.493 124.71 574.453 119.788 534.096 112.286C453.378 97.2813 363.419 71.9596 292.733 38.2589L292.41 38.9364ZM-37.3739 18.7235C-9.68979 13.668 40.2807 10.4606 104.604 12.6325L104.63 11.8825C40.2805 9.70962 -9.74991 12.9161 -37.5087 17.9852L-37.3739 18.7235ZM104.603 12.6325C171.06 15.083 237.523 16.2533 304.382 47.2296L304.697 46.5486C237.678 15.4978 171.058 14.3318 104.631 11.8825L104.603 12.6325ZM304.379 47.2285C376.995 81.489 466.272 106.583 545.485 121.22C585.093 128.538 622.192 133.243 653.44 135.171C684.679 137.099 710.102 136.254 726.344 132.454L726.173 131.723C710.042 135.497 684.709 136.349 653.487 134.422C622.274 132.496 585.206 127.796 545.622 120.482C466.45 105.853 377.24 80.7746 304.699 46.5497L304.379 47.2285ZM-45.7812 24.8557C-20.3699 21.9356 27.5322 22.9474 97.5038 26.1772L97.5384 25.4274C27.5865 22.1986 -20.3827 21.1816 -45.8669 24.1101L-45.7812 24.8557ZM97.502 26.1771C171.737 29.9646 239.349 22.6437 316.562 57.6569L316.872 56.9734C239.488 21.8831 171.649 29.2086 97.5402 25.4275L97.502 26.1771ZM316.558 57.6552C391.027 92.4383 479.554 117.29 557.223 131.55C596.058 138.681 632.185 143.165 662.489 144.918C692.783 146.67 717.288 145.696 732.864 141.892L732.686 141.163C717.223 144.939 692.809 145.92 662.532 144.169C632.265 142.418 596.17 137.938 557.358 130.812C479.734 116.56 391.271 91.7242 316.876 56.9752L316.558 57.6552ZM-54.1057 31.8832C-42.5432 31.4909 -25.3046 32.6011 -1.48479 34.3481C22.3263 36.0944 52.6948 38.4752 90.4922 40.6185L90.5347 39.8692C52.7451 37.7264 22.3847 35.3462 -1.42989 33.5996C-25.2357 31.8537 -42.5196 30.7391 -54.1311 31.1331L-54.1057 31.8832ZM90.49 40.6184C110.98 41.8989 130.655 41.8701 150.003 41.7181C169.355 41.5661 188.375 41.2909 207.575 42.0766C245.966 43.6478 285.057 49.4606 328.831 68.9807L329.136 68.2952C285.251 48.7254 246.06 42.9005 207.605 41.3268C188.383 40.5401 169.341 40.8156 149.997 40.9676C130.65 41.1196 110.998 41.1481 90.5368 39.8693L90.49 40.6184ZM328.826 68.9785C405.147 104.284 492.924 128.893 569.049 142.778C607.112 149.72 642.267 153.983 671.626 155.561C700.975 157.139 724.563 156.035 739.474 152.226L739.288 151.499C724.492 155.279 700.998 156.388 671.666 154.812C642.345 153.236 607.221 148.977 569.183 142.039C493.105 128.163 405.391 103.571 329.141 68.2974L328.826 68.9785ZM-62.4349 38.9289C-52.002 39.6036 -35.856 42.3014 -12.1186 45.5055C11.6032 48.7075 42.8665 52.4086 83.4832 55.0808L83.5325 54.3319C42.937 51.6611 11.6912 47.9621 -12.0182 44.7618C-35.7119 41.5635 -51.9191 38.8569 -62.3865 38.18L-62.4349 38.9289ZM83.4809 55.0807C105.909 56.6954 127.112 56.3857 147.823 55.6882C168.541 54.9905 188.754 53.9056 209.235 53.9662C250.18 54.0873 292.153 58.7881 341.101 80.3252L341.403 79.6382C292.333 58.0474 250.25 53.337 209.237 53.2157C188.738 53.155 168.496 54.2411 147.798 54.9381C127.095 55.6353 105.923 55.9439 83.5348 54.3321L83.4809 55.0807ZM341.096 80.3229C419.269 116.151 506.297 140.516 580.877 154.026C618.167 160.781 652.351 164.822 680.765 166.225C709.169 167.628 731.84 166.395 746.086 162.582L745.892 161.857C731.763 165.639 709.188 166.877 680.802 165.476C652.427 164.075 618.275 160.037 581.01 153.287C506.479 139.787 419.513 115.438 341.408 79.6406L341.096 80.3229ZM-70.7721 45.9696C-52.1826 49.4522 -10.3902 63.1412 76.4747 69.5431L76.5298 68.7947C-10.2801 62.3968 -51.9701 48.7284 -70.6339 45.2319L-70.7721 45.9696ZM76.4724 69.543C125.179 73.4386 167.412 67.1836 210.893 65.8552C254.393 64.5263 299.248 68.1151 353.371 91.6696L353.67 90.9814C299.416 67.3697 254.443 63.7739 210.87 65.1051C167.276 66.4368 125.189 72.6866 76.5322 68.7948L76.4724 69.543ZM353.365 91.6671C433.391 128.018 519.669 152.14 592.704 165.274C629.222 171.841 662.435 175.662 689.905 176.889C717.364 178.117 739.117 176.755 752.698 172.937L752.495 172.214C739.033 175.999 717.378 177.366 689.938 176.14C662.508 174.914 629.329 171.098 592.837 164.535C519.852 151.411 433.635 127.305 353.675 90.9838L353.365 91.6671ZM-79.1173 53.0018C-62.7621 58.6301 -23.047 76.5446 69.4665 84.0054L69.5269 83.2574C-22.8849 75.8047 -62.5226 57.9189 -78.8731 52.2921L-79.1173 53.0018ZM69.4642 84.0052C122.047 88.5692 166.509 80.522 212.549 77.7439C258.605 74.965 306.341 77.4417 365.64 103.014L365.937 102.325C306.499 76.6924 258.637 74.2111 212.504 76.9948C166.356 79.7793 122.04 87.8153 69.5291 83.2575L69.4642 84.0052ZM365.634 103.011C447.513 139.885 533.042 163.764 604.532 176.522C640.278 182.901 672.519 186.501 699.044 187.553C725.558 188.606 746.394 187.115 759.311 183.292L759.098 182.572C746.303 186.359 725.569 187.855 699.074 186.804C672.589 185.753 640.383 182.158 604.664 175.783C533.226 163.035 447.758 139.172 365.943 102.327L365.634 103.011ZM-87.4688 60.0218C-73.3517 67.8082 -35.6898 89.9489 62.4587 98.4678L62.5236 97.7201C-35.5037 89.2117 -73.065 67.1092 -87.1063 59.3646L-87.4688 60.0218ZM62.4565 98.4676C118.913 103.7 165.605 93.8605 214.205 89.6324C262.815 85.4034 313.434 86.7681 377.909 114.358L378.205 113.668C313.583 86.0154 262.832 84.6486 214.14 88.8847C165.436 93.1218 118.893 102.944 62.5258 97.7203L62.4565 98.4676ZM377.904 114.356C461.635 151.752 546.414 175.388 616.36 187.77C651.333 193.962 682.603 197.34 708.184 198.218C733.753 199.095 753.672 197.475 765.924 193.646L765.7 192.93C753.573 196.719 733.759 198.344 708.209 197.468C682.671 196.592 651.437 193.218 616.491 187.031C546.599 174.659 461.88 151.04 378.21 113.67L377.904 114.356ZM-95.821 67.027C-83.947 76.9879 -48.3239 103.354 55.4511 112.93L55.5201 112.183C-48.1311 102.618 -83.6017 76.298 -95.3386 66.452L-95.821 67.027ZM55.4491 112.93C115.779 118.83 164.701 107.199 215.859 101.521C267.025 95.8417 320.527 96.0943 390.179 125.702L390.472 125.011C320.668 95.3386 267.027 95.0863 215.776 100.775C164.517 106.464 115.748 118.073 55.5221 112.183L55.4491 112.93ZM390.173 125.7C475.757 163.619 559.787 187.012 628.188 199.019C662.389 205.022 692.687 208.179 717.323 208.882C741.948 209.584 760.95 207.834 772.538 204.001L772.302 203.288C760.843 207.079 741.949 208.833 717.345 208.132C692.752 207.43 662.491 204.278 628.318 198.279C559.973 186.283 476.002 162.907 390.477 125.014L390.173 125.7ZM-104.166 74.0186C-94.5481 86.1693 -60.9517 116.759 48.4437 127.392L48.5163 126.645C-60.7649 116.024 -94.1326 85.485 -103.578 73.5528L-104.166 74.0186ZM48.4418 127.392C112.643 133.961 163.797 120.537 217.512 113.409C271.234 106.28 327.619 105.42 402.448 137.046L402.74 136.355C327.753 104.662 271.224 105.524 217.414 112.665C163.598 119.807 112.603 133.202 48.5182 126.646L48.4418 127.392ZM402.443 137.044C489.879 175.486 573.159 198.636 640.016 210.267C673.445 216.082 702.772 219.019 726.463 219.546C750.143 220.073 768.229 218.194 779.152 214.355L778.903 213.647C768.112 217.44 750.138 219.322 726.48 218.796C702.833 218.269 673.544 215.338 640.145 209.527C573.346 197.907 490.124 174.774 402.745 136.357L402.443 137.044ZM-112.498 81.003C-105.154 95.351 -73.576 130.166 41.4365 141.855L41.5124 141.108C-73.4022 129.429 -104.659 94.6718 -111.83 80.661L-112.498 81.003ZM41.4348 141.855C109.507 149.091 162.892 133.876 219.165 125.297C275.442 116.718 334.711 114.746 414.717 148.39L415.008 147.698C334.838 113.985 275.421 115.962 219.052 124.555C162.679 133.149 109.458 148.331 41.5141 141.108L41.4348 141.855ZM414.712 148.388C504.001 187.353 586.532 210.26 651.844 221.515C684.5 227.143 712.856 229.858 735.603 230.21C758.338 230.562 775.508 228.554 785.767 224.709L785.504 224.006C775.381 227.8 758.328 229.811 735.615 229.46C712.915 229.108 684.598 226.398 651.972 220.776C586.72 209.531 504.246 186.642 415.012 147.7L414.712 148.388ZM-120.816 87.9879C-115.762 104.531 -86.1999 143.572 34.4294 156.317L34.5083 155.571C-86.0398 142.834 -115.182 103.86 -120.098 87.7686L-120.816 87.9879ZM34.4279 156.317C106.37 164.221 161.986 147.215 220.817 137.185C279.65 127.156 341.802 124.072 426.986 159.734L427.275 159.042C341.924 123.309 279.619 126.4 220.691 136.446C161.761 146.492 106.314 163.46 34.5099 155.571L34.4279 156.317ZM426.981 159.732C518.123 199.22 599.904 221.884 663.672 232.763C695.556 238.203 722.941 240.697 744.744 240.874C766.534 241.051 782.787 238.914 792.383 235.062L792.104 234.365C782.649 238.16 766.517 240.3 744.75 240.124C722.996 239.947 695.652 237.458 663.799 232.024C600.093 221.155 518.369 198.509 427.28 159.044L426.981 159.732ZM-129.12 94.979C-126.369 113.708 -98.8258 156.978 27.4225 170.78L27.5041 170.033C-98.6755 156.239 -125.707 113.051 -128.378 94.87L-129.12 94.979ZM27.4211 170.779C103.233 179.352 161.08 160.553 222.469 149.074C283.857 137.594 348.893 133.397 439.254 171.078L439.543 170.385C349.01 132.633 283.817 136.838 222.331 148.336C160.844 159.834 103.171 178.589 27.5055 170.034L27.4211 170.779ZM439.25 171.076C532.244 211.087 613.277 233.508 675.5 244.012C706.612 249.263 733.026 251.537 753.884 251.538C774.73 251.54 790.068 249.273 799 245.414L798.702 244.725C789.916 248.521 774.706 250.789 753.884 250.788C733.077 250.786 706.705 248.518 675.625 243.272C613.466 232.779 532.491 210.376 439.547 170.387L439.25 171.076ZM-137.335 101.971C-136.891 122.874 -111.374 170.375 20.4972 185.234L20.5812 184.488C-111.227 169.637 -136.154 122.238 -136.585 101.955L-137.335 101.971ZM20.4959 185.234C100.177 194.474 160.255 173.884 224.201 160.954C288.146 148.024 356.066 142.715 451.605 182.414L451.893 181.721C356.178 141.949 288.097 147.268 224.052 160.218C160.008 173.168 100.109 193.71 20.5824 184.488L20.4959 185.234ZM451.601 182.413C546.448 222.946 626.731 245.124 687.41 255.252C717.749 260.316 743.192 262.368 763.107 262.194C783.008 262.021 797.43 259.624 805.699 255.758L805.382 255.078C797.264 258.874 782.976 261.27 763.1 261.444C743.239 261.617 717.84 259.57 687.534 254.512C626.921 244.395 546.695 222.236 451.896 181.722L451.601 182.413ZM-145.208 108.938C-146.138 120.452 -140.733 139.167 -117.91 156.978C-95.092 174.785 -54.8604 191.695 13.9087 199.655L13.995 198.91C-54.7002 190.958 -94.7799 174.076 -117.448 156.386C-140.111 138.701 -145.366 120.215 -144.46 108.998L-145.208 108.938ZM13.9077 199.655C97.4577 209.563 159.766 187.181 226.27 172.801C292.77 158.42 363.575 151.999 464.292 193.717L464.579 193.023C363.682 151.231 292.714 157.665 226.111 172.067C159.51 186.469 97.384 208.798 13.9961 198.91L13.9077 199.655ZM464.289 193.715C560.988 234.772 640.522 256.707 699.656 266.459C729.223 271.335 753.695 273.166 772.666 272.817C791.622 272.468 805.131 269.942 812.737 266.068L812.396 265.399C804.948 269.193 791.582 271.718 772.652 272.067C753.737 272.415 729.312 270.589 699.779 265.718C640.712 255.978 561.235 234.062 464.582 193.025L464.289 193.715ZM-152.78 115.882C-154.86 128.465 -150.548 148.782 -127.817 168.058C-105.092 187.327 -63.9644 205.558 7.61824 214.047L7.70662 213.302C-63.8003 204.822 -104.764 186.622 -127.331 167.485C-149.891 148.355 -154.071 128.291 -152.04 116.005L-152.78 115.882ZM7.61737 214.047C95.0359 224.623 159.575 200.45 228.636 184.618C297.693 168.788 371.381 161.254 477.276 204.99L477.563 204.296C371.485 160.485 297.629 168.032 228.468 183.887C159.31 199.74 94.9573 223.857 7.7075 213.302L7.61737 214.047ZM477.274 204.989C575.826 246.568 654.611 268.26 712.201 277.637C740.995 282.325 764.496 283.935 782.524 283.41C800.535 282.886 813.13 280.231 820.074 276.346L819.707 275.692C812.928 279.484 800.486 282.137 782.502 282.66C764.534 283.183 741.082 281.578 712.321 276.896C654.802 267.531 576.074 245.859 477.566 204.297L477.274 204.989ZM-160.105 122.809C-163.332 136.456 -160.116 158.372 -137.476 179.113C-114.847 199.845 -72.8224 219.397 1.57368 228.414L1.664 227.669C-72.6548 218.661 -114.502 199.143 -136.969 178.56C-159.427 157.986 -162.533 136.341 -159.375 122.981L-160.105 122.809ZM1.57297 228.414C92.8599 239.658 159.629 213.694 231.247 196.412C302.861 179.131 379.434 170.484 490.507 216.239L490.793 215.545C379.534 169.714 302.791 178.375 231.071 195.682C159.357 212.988 92.7766 238.891 1.66472 227.669L1.57297 228.414ZM490.505 216.238C590.909 258.34 668.946 279.79 724.991 288.79C753.013 293.29 775.544 294.679 792.628 293.979C809.695 293.28 821.377 290.495 827.658 286.599L827.262 285.962C821.153 289.75 809.635 292.532 792.597 293.23C775.576 293.927 753.097 292.544 725.11 288.049C669.137 279.06 591.158 257.631 490.795 215.546L490.505 216.238ZM-167.225 129.719C-171.595 144.43 -169.477 167.943 -146.93 190.149C-124.396 212.343 -81.4755 233.216 -4.26605 242.762L-4.17395 242.017C-81.3046 232.481 -124.036 211.644 -146.404 189.614C-168.76 167.595 -170.794 144.368 -166.506 129.933L-167.225 129.719ZM-4.26662 242.762C90.8884 254.673 159.888 226.918 234.063 208.185C308.233 189.453 387.691 179.695 503.943 227.468L504.228 226.774C387.787 178.923 308.157 188.699 233.88 207.457C159.608 226.215 90.8009 253.906 -4.17339 242.017L-4.26662 242.762ZM503.941 227.467C606.198 270.092 683.485 291.299 737.986 299.923C765.236 304.236 786.796 305.404 802.937 304.528C819.06 303.654 829.83 300.738 835.449 296.83L835.021 296.214C829.581 299.997 818.989 302.906 802.896 303.779C786.823 304.651 765.317 303.489 738.103 299.182C683.677 290.569 606.448 269.383 504.23 226.775L503.941 227.467ZM-174.174 136.617C-179.685 152.389 -178.663 177.497 -156.212 201.167C-133.773 224.824 -89.9564 247.018 -9.93367 257.092L-9.83992 256.348C-89.7825 246.283 -133.398 224.128 -155.667 200.651C-177.923 177.187 -178.885 152.375 -173.465 136.864L-174.174 136.617ZM-9.93408 257.092C89.0888 269.671 160.319 240.125 237.051 219.941C313.777 199.759 396.12 188.888 517.55 238.68L517.835 237.985C396.213 188.115 313.696 199.005 236.86 219.215C160.031 239.425 88.9974 268.903 -9.83951 256.348L-9.93408 257.092ZM517.549 238.679C621.658 281.827 698.197 302.791 751.153 311.04C777.631 315.164 798.221 316.111 813.419 315.06C828.597 314.01 838.458 310.964 843.414 307.041L842.948 306.452C838.179 310.228 828.513 313.264 813.367 314.311C798.241 315.358 777.709 314.417 751.269 310.298C698.389 302.061 621.909 281.119 517.836 237.986L517.549 238.679ZM-180.976 143.503C-187.628 160.337 -187.702 187.039 -165.346 212.172C-143.003 237.291 -98.2915 260.805 -15.4555 271.408L-15.3602 270.664C-98.1148 260.071 -142.615 236.598 -164.786 211.673C-186.943 186.763 -186.832 160.365 -180.278 143.778L-180.976 143.503ZM-15.4558 271.408C87.4348 284.655 160.894 253.318 240.185 231.683C319.467 210.051 404.694 198.067 531.303 249.877L531.587 249.183C404.785 197.293 319.381 209.296 239.987 230.959C160.601 252.62 87.3398 283.886 -15.36 270.664L-15.4558 271.408ZM531.302 249.877C637.264 293.548 713.054 314.268 764.466 322.142C790.171 326.078 809.792 326.804 824.047 325.577C838.281 324.352 847.234 321.174 851.527 317.233L851.02 316.68C846.919 320.444 838.183 323.607 823.983 324.829C809.805 326.05 790.247 325.33 764.579 321.4C713.246 313.539 637.516 292.84 531.588 249.183L531.302 249.877ZM-187.654 150.378C-195.445 168.275 -196.615 196.569 -174.356 223.165C-152.109 249.746 -106.502 274.58 -20.8528 285.712L-20.7561 284.968C-106.323 273.847 -151.708 249.055 -173.78 222.683C-195.84 196.326 -194.655 168.34 -186.966 150.678L-187.654 150.378ZM-20.8529 285.712C85.9051 299.626 161.595 266.499 243.442 243.413C325.281 220.33 413.393 207.233 545.181 261.063L545.464 260.368C413.481 206.459 325.19 219.576 243.238 242.691C161.295 265.803 85.8067 298.857 -20.7559 284.968L-20.8529 285.712ZM545.18 261.063C652.995 305.256 728.036 325.734 777.903 333.231C802.836 336.98 821.487 337.485 834.801 336.082C848.091 334.681 856.138 331.371 859.767 327.407L859.214 326.901C855.781 330.65 847.976 333.939 834.722 335.336C821.493 336.73 802.909 336.232 778.015 332.489C728.228 325.004 653.247 304.549 545.465 260.368L545.18 261.063Z" fill="white"/>
</svg>
