<svg width="32" height="32" viewBox="0 0 32 32" fill="none" xmlns="http://www.w3.org/2000/svg">
<path d="M8.80191 25.6048C8.80191 27.9912 6.86739 29.9257 4.48103 29.9257C2.09468 29.9257 0.160156 27.9912 0.160156 25.6048C0.160156 23.2185 2.09468 21.2839 4.48103 21.2839C6.86739 21.2839 8.80191 23.2185 8.80191 25.6048ZM2.24503 25.6048C2.24503 26.8397 3.24613 27.8408 4.48103 27.8408C5.71594 27.8408 6.71703 26.8397 6.71703 25.6048C6.71703 24.3699 5.71594 23.3688 4.48103 23.3688C3.24613 23.3688 2.24503 24.3699 2.24503 25.6048Z" fill="#0E1821"/>
<circle cx="4.48105" cy="25.605" r="2.16044" stroke="#0E1821" stroke-width="0.480098"/>
<circle cx="4.48103" cy="25.6048" r="4.08083" stroke="#0E1821" stroke-width="0.480098"/>
<path d="M31.8463 25.6048C31.8463 27.9912 29.9118 29.9257 27.5255 29.9257C25.1391 29.9257 23.2046 27.9912 23.2046 25.6048C23.2046 23.2185 25.1391 21.2839 27.5255 21.2839C29.9118 21.2839 31.8463 23.2185 31.8463 25.6048ZM25.2895 25.6048C25.2895 26.8397 26.2906 27.8408 27.5255 27.8408C28.7604 27.8408 29.7615 26.8397 29.7615 25.6048C29.7615 24.3699 28.7604 23.3688 27.5255 23.3688C26.2906 23.3688 25.2895 24.3699 25.2895 25.6048Z" fill="#0E1821"/>
<circle cx="27.5255" cy="25.605" r="2.16044" stroke="#0E1821" stroke-width="0.480098"/>
<circle cx="27.5255" cy="25.6048" r="4.08083" stroke="#0E1821" stroke-width="0.480098"/>
<path d="M22.2448 22.5645H10.4023L10.6424 25.6851H19.6842L22.2448 22.5645Z" fill="#F15152" stroke="#0E1821" stroke-width="0.480098" stroke-linecap="round" stroke-linejoin="round"/>
<path d="M4.83411 18.6513L4.84444 18.6528L4.85485 18.6533C8.18309 18.8292 10.892 21.3433 11.3684 24.5832C11.4288 24.9937 11.0869 25.3649 10.6228 25.3649C10.1792 25.3649 9.79208 24.9949 9.68837 24.5027C9.18076 22.0933 7.04354 20.2844 4.48313 20.2836L1.68425 20.2438L1.68425 20.2438H1.68084C1.23892 20.2438 0.880674 19.8856 0.880674 19.4437C0.880674 19.0017 1.23892 18.6435 1.68084 18.6435H4.72145C4.75982 18.6435 4.79742 18.6462 4.83411 18.6513Z" fill="#2A5275" stroke="#0E1821" stroke-width="0.480098"/>
<path d="M23.2927 3.96036L23.2588 3.76042H23.056L21.3646 3.76042V2.6402H24.0051C24.1043 2.6402 24.1899 2.70046 24.2264 2.78696L25.4707 10.007L24.3496 10.197L23.2927 3.96036Z" fill="#4878A6" stroke="#0E1821" stroke-width="0.480098"/>
<mask id="path-10-inside-1_127_5590" fill="white">
<path fill-rule="evenodd" clip-rule="evenodd" d="M26.5005 16.3562C26.0012 15.9982 25.3062 16.1128 24.9482 16.6121L19.3035 24.4846L4.64122 24.4846C4.02254 24.4846 3.521 24.9862 3.521 25.6049C3.521 26.2236 4.02254 26.7251 4.64122 26.7251H19.8443C20.1751 26.7251 20.4725 26.5817 20.6775 26.3536C20.7268 26.3065 20.7724 26.2542 20.8136 26.1968L26.7563 17.9085C27.1143 17.4092 26.9998 16.7142 26.5005 16.3562Z"/>
</mask>
<path fill-rule="evenodd" clip-rule="evenodd" d="M26.5005 16.3562C26.0012 15.9982 25.3062 16.1128 24.9482 16.6121L19.3035 24.4846L4.64122 24.4846C4.02254 24.4846 3.521 24.9862 3.521 25.6049C3.521 26.2236 4.02254 26.7251 4.64122 26.7251H19.8443C20.1751 26.7251 20.4725 26.5817 20.6775 26.3536C20.7268 26.3065 20.7724 26.2542 20.8136 26.1968L26.7563 17.9085C27.1143 17.4092 26.9998 16.7142 26.5005 16.3562Z" fill="#4878A6"/>
<path d="M24.9482 16.612L24.558 16.3323V16.3323L24.9482 16.612ZM26.5005 16.3562L26.7802 15.966L26.5005 16.3562ZM19.3035 24.4846V24.9647H19.5501L19.6937 24.7643L19.3035 24.4846ZM4.64122 24.4846V24.0045V24.4846ZM20.6775 26.3536L20.3458 26.0066L20.3327 26.0191L20.3206 26.0326L20.6775 26.3536ZM20.8136 26.1968L20.4234 25.917L20.4234 25.917L20.8136 26.1968ZM26.7563 17.9084L27.1465 18.1882L27.1465 18.1882L26.7563 17.9084ZM25.3384 16.8918C25.5419 16.6079 25.9369 16.5428 26.2207 16.7463L26.7802 15.966C26.0654 15.4535 25.0705 15.6175 24.558 16.3323L25.3384 16.8918ZM19.6937 24.7643L25.3384 16.8918L24.558 16.3323L18.9134 24.2048L19.6937 24.7643ZM4.64122 24.9647L19.3035 24.9647V24.0045L4.64122 24.0045V24.9647ZM4.00109 25.6048C4.00109 25.2513 4.28769 24.9647 4.64122 24.9647V24.0045C3.75739 24.0045 3.0409 24.721 3.0409 25.6048H4.00109ZM4.64122 26.2449C4.28769 26.2449 4.00109 25.9583 4.00109 25.6048H3.0409C3.0409 26.4886 3.75739 27.2051 4.64122 27.2051V26.2449ZM19.8443 26.2449H4.64122V27.2051H19.8443V26.2449ZM20.3206 26.0326C20.2027 26.1636 20.0333 26.2449 19.8443 26.2449V27.2051C20.317 27.2051 20.7423 26.9996 21.0345 26.6746L20.3206 26.0326ZM20.4234 25.917C20.3997 25.9501 20.3736 25.9799 20.3458 26.0066L21.0093 26.7006C21.08 26.633 21.1452 26.5582 21.2037 26.4765L20.4234 25.917ZM26.3661 17.6287L20.4234 25.917L21.2037 26.4765L27.1465 18.1882L26.3661 17.6287ZM26.2207 16.7463C26.5045 16.9498 26.5696 17.3449 26.3661 17.6287L27.1465 18.1882C27.659 17.4734 27.495 16.4785 26.7802 15.966L26.2207 16.7463Z" fill="#0E1821" mask="url(#path-10-inside-1_127_5590)"/>
<rect x="24.0258" y="10.0916" width="1.74476" height="16.4546" rx="0.872381" transform="rotate(-9.61845 24.0258 10.0916)" fill="#4878A6" stroke="#0E1821" stroke-width="0.480098"/>
<rect x="21.3644" y="2.32025" width="1.76036" height="4.64094" rx="0.880179" transform="rotate(90 21.3644 2.32025)" fill="#2A5275" stroke="#0E1821" stroke-width="0.480098"/>
<path d="M26.0056 2.80017L24.4053 3.68035L24.8054 6.16085H26.5657L26.0056 2.80017Z" fill="#4878A6" stroke="#0E1821" stroke-width="0.480098" stroke-linecap="round" stroke-linejoin="round"/>
<path fill-rule="evenodd" clip-rule="evenodd" d="M26.473 5.60062L26.1363 3.58057C26.2456 3.54154 26.3634 3.52028 26.4861 3.52028C27.0606 3.52028 27.5263 3.986 27.5263 4.56049C27.5263 5.13499 27.0606 5.6007 26.4861 5.6007C26.4817 5.6007 26.4773 5.60068 26.473 5.60062Z" fill="#FBB13C"/>
<path d="M26.4729 5.6006L26.2361 5.64007L26.2691 5.83814L26.4699 5.84064L26.4729 5.6006ZM26.1362 3.58055L26.0555 3.35448L25.8664 3.42199L25.8994 3.62002L26.1362 3.58055ZM26.7097 5.56114L26.373 3.54109L25.8994 3.62002L26.2361 5.64007L26.7097 5.56114ZM26.2169 3.80662C26.3007 3.77671 26.3912 3.76031 26.4861 3.76031V3.28021C26.3354 3.28021 26.1904 3.30633 26.0555 3.35448L26.2169 3.80662ZM26.4861 3.76031C26.928 3.76031 27.2862 4.11856 27.2862 4.56047H27.7663C27.7663 3.85341 27.1931 3.28021 26.4861 3.28021V3.76031ZM27.2862 4.56047C27.2862 5.00239 26.928 5.36064 26.4861 5.36064V5.84074C27.1931 5.84074 27.7663 5.26754 27.7663 4.56047H27.2862ZM26.4861 5.36064C26.4827 5.36064 26.4793 5.36062 26.4759 5.36057L26.4699 5.84064C26.4753 5.8407 26.4807 5.84074 26.4861 5.84074V5.36064Z" fill="#0E1821"/>
<circle cx="16.0034" cy="15.2029" r="5.52112" fill="white" stroke="#0E1821" stroke-width="0.480098"/>
<path d="M14.7334 11.3853C14.749 11.3324 14.7814 11.286 14.8257 11.253C14.87 11.2199 14.9239 11.2021 14.9792 11.2021H17.0275C17.0681 11.2022 17.108 11.2118 17.1441 11.2302C17.1802 11.2486 17.2114 11.2753 17.2351 11.3081C17.2588 11.3409 17.2743 11.3788 17.2804 11.4187C17.2865 11.4587 17.2831 11.4995 17.2702 11.5378L16.3588 14.2626H18.3077C18.3556 14.2626 18.4026 14.2759 18.4433 14.3012C18.484 14.3265 18.5168 14.3626 18.5378 14.4055C18.5589 14.4484 18.5675 14.4963 18.5626 14.5438C18.5576 14.5913 18.5394 14.6365 18.51 14.6742L14.9255 19.2649C14.8887 19.3121 14.8365 19.345 14.7779 19.3579C14.7193 19.3707 14.6581 19.3626 14.6049 19.335C14.5516 19.3075 14.5098 19.2622 14.4867 19.207C14.4636 19.1519 14.4607 19.0904 14.4784 19.0333L15.4007 16.0478H13.6991C13.6593 16.0479 13.62 16.0386 13.5844 16.0209C13.5488 16.0032 13.5178 15.9774 13.494 15.9457C13.4701 15.9139 13.454 15.8771 13.4469 15.8381C13.4399 15.7991 13.442 15.7589 13.4533 15.7209L14.7334 11.3853ZM15.1707 11.7122L14.0411 15.5378H15.7473C15.7874 15.5378 15.8269 15.5471 15.8627 15.5651C15.8985 15.5831 15.9295 15.6092 15.9533 15.6413C15.9771 15.6734 15.993 15.7106 15.9998 15.7499C16.0065 15.7893 16.0039 15.8296 15.9921 15.8678L15.3787 17.8535L17.7844 14.7727H16.0034C15.9628 14.7726 15.9229 14.763 15.8868 14.7446C15.8507 14.7262 15.8195 14.6995 15.7958 14.6667C15.7721 14.6339 15.7566 14.596 15.7505 14.5561C15.7443 14.5162 15.7478 14.4754 15.7607 14.437L16.6721 11.7122H15.1707Z" fill="#F15152"/>
</svg>
